<?xml version="1.0" encoding="utf-8"?>
<!-- Generator: Adobe Illustrator 15.0.0, SVG Export Plug-In . SVG Version: 6.00 Build 0)  -->
<!DOCTYPE svg PUBLIC "-//W3C//DTD SVG 1.1//EN" "http://www.w3.org/Graphics/SVG/1.1/DTD/svg11.dtd">
<svg version="1.1" xmlns="http://www.w3.org/2000/svg" xmlns:xlink="http://www.w3.org/1999/xlink" x="0px" y="0px" width="200px"
	 height="100px" viewBox="40.5 80.5 200 100" enable-background="new 40.5 80.5 200 100" xml:space="preserve">
<g id="Layer_1" display="none">
	<path id="text1535" display="inline" d="M78.908,113.011c1.923,0,4.245,0.397,6.963,1.192c2.744,0.795,4.565,1.192,5.463,1.192
		c1.154,0,3.04-0.448,5.656-1.347c2.616-0.897,4.886-1.346,6.81-1.346c3.154,0,5.963,0.846,8.425,2.539
		c1.386,0.975,2.758,2.295,4.117,3.962c-2.052,1.744-3.553,3.296-4.502,4.655c-1.718,2.463-2.577,5.182-2.577,8.156
		c0,3.258,0.91,6.194,2.731,8.811s3.898,4.271,6.232,4.963c-0.975,3.154-2.591,6.45-4.848,9.887
		c-3.411,5.155-6.797,7.733-10.156,7.733c-1.334,0-3.181-0.424-5.54-1.27c-2.334-0.847-4.309-1.27-5.925-1.27
		s-3.501,0.436-5.655,1.308c-2.129,0.897-3.86,1.347-5.194,1.347c-4.027,0-7.977-3.411-11.85-10.233
		c-3.873-6.746-5.809-13.363-5.809-19.852c0-6.027,1.475-10.939,4.424-14.735C70.649,114.908,74.394,113.011,78.908,113.011"/>
</g>
<g id="Layer_1_copy">
	<path d="M114.717,118.704c-2.976-3.796-6.721-5.693-11.234-5.693c-1.924,0-4.244,0.397-6.963,1.192
		c-2.744,0.795-4.566,1.192-5.463,1.192c-0.125,0-0.598,0-0.722,0c-0.897,0-2.719-0.397-5.463-1.192
		c-2.719-0.795-5.04-1.192-6.963-1.192c-4.514,0-8.259,1.897-11.234,5.693c-2.95,3.796-4.424,8.708-4.424,14.735
		c0,6.488,1.937,13.105,5.809,19.852c3.873,6.822,7.823,10.233,11.85,10.233c1.333,0,3.065-0.449,5.194-1.347
		c2.127-0.861,3.99-1.293,5.593-1.304c1.602,0.011,3.465,0.442,5.593,1.304c2.129,0.897,3.86,1.347,5.194,1.347
		c4.026,0,7.977-3.411,11.85-10.233c3.872-6.746,5.809-13.363,5.809-19.852C119.141,127.412,117.666,122.5,114.717,118.704z"/>
</g>
<g id="Layer_2">
	<path d="M103.146,97.853c0.103,0.333,0.167,0.629,0.192,0.885c0.025,0.257,0.038,0.513,0.038,0.77c0,1.642-0.385,3.437-1.153,5.386
		c-0.77,1.949-1.988,3.758-3.655,5.425c-1.437,1.411-2.86,2.359-4.271,2.847c-0.897,0.282-2.257,0.501-4.078,0.654
		c0.051-3.898,1.064-7.271,3.039-10.118C95.259,100.854,98.555,98.904,103.146,97.853"/>
</g>
<g id="Layer_4">
	<path fill="#FF0000" d="M231.377,148.832c-12.312,0-22.293-6.331-22.293-16.666c0-10.499,9.98-16.666,22.293-16.666
		C243.687,115.5,243.687,148.832,231.377,148.832z"/>
</g>
</svg>
